<mxfile host="app.diagrams.net" modified="2022-09-26T09:42:53.679Z" agent="5.0 (Windows NT 10.0; Win64; x64) AppleWebKit/537.36 (KHTML, like Gecko) Chrome/105.0.0.0 Safari/537.36 Edg/105.0.1343.50" etag="RXy-keDIq01b2Aido3aw" version="20.3.6" type="github">
  <diagram id="RgDUGABZwyIEaO8ZipTe" name="Seite-1">
    <mxGraphModel dx="651" dy="396" grid="1" gridSize="10" guides="1" tooltips="1" connect="1" arrows="1" fold="1" page="1" pageScale="1" pageWidth="827" pageHeight="1169" math="0" shadow="0">
      <root>
        <mxCell id="0" />
        <mxCell id="1" parent="0" />
        <mxCell id="bAJiLaF6DqSXuImHkChI-13" value="" style="rounded=0;whiteSpace=wrap;html=1;fontSize=14;" vertex="1" parent="1">
          <mxGeometry x="40" y="100" width="640" height="230" as="geometry" />
        </mxCell>
        <mxCell id="bAJiLaF6DqSXuImHkChI-2" value="&lt;font style=&quot;font-size: 50px;&quot;&gt;0&lt;/font&gt;" style="whiteSpace=wrap;html=1;aspect=fixed;fillColor=#fff2cc;strokeColor=#d6b656;" vertex="1" parent="1">
          <mxGeometry x="80" y="130" width="80" height="80" as="geometry" />
        </mxCell>
        <mxCell id="bAJiLaF6DqSXuImHkChI-3" value="1" style="whiteSpace=wrap;html=1;aspect=fixed;fillColor=#fff2cc;strokeColor=#d6b656;fontSize=50;" vertex="1" parent="1">
          <mxGeometry x="160" y="130" width="80" height="80" as="geometry" />
        </mxCell>
        <mxCell id="bAJiLaF6DqSXuImHkChI-4" value="2" style="whiteSpace=wrap;html=1;aspect=fixed;fillColor=#fff2cc;strokeColor=#d6b656;fontSize=50;" vertex="1" parent="1">
          <mxGeometry x="240" y="130" width="80" height="80" as="geometry" />
        </mxCell>
        <mxCell id="bAJiLaF6DqSXuImHkChI-5" value="3" style="whiteSpace=wrap;html=1;aspect=fixed;fillColor=#fff2cc;strokeColor=#d6b656;fontSize=50;" vertex="1" parent="1">
          <mxGeometry x="320" y="130" width="80" height="80" as="geometry" />
        </mxCell>
        <mxCell id="bAJiLaF6DqSXuImHkChI-6" value="4" style="whiteSpace=wrap;html=1;aspect=fixed;fillColor=#fff2cc;strokeColor=#d6b656;fontSize=50;" vertex="1" parent="1">
          <mxGeometry x="400" y="130" width="80" height="80" as="geometry" />
        </mxCell>
        <mxCell id="bAJiLaF6DqSXuImHkChI-7" value="&lt;font style=&quot;font-size: 50px;&quot;&gt;6&lt;/font&gt;" style="whiteSpace=wrap;html=1;aspect=fixed;fillColor=#fff2cc;strokeColor=#d6b656;" vertex="1" parent="1">
          <mxGeometry x="560" y="130" width="80" height="80" as="geometry" />
        </mxCell>
        <mxCell id="bAJiLaF6DqSXuImHkChI-8" value="&lt;font style=&quot;font-size: 50px;&quot;&gt;5&lt;/font&gt;" style="whiteSpace=wrap;html=1;aspect=fixed;fillColor=#fff2cc;strokeColor=#d6b656;" vertex="1" parent="1">
          <mxGeometry x="480" y="130" width="80" height="80" as="geometry" />
        </mxCell>
        <mxCell id="bAJiLaF6DqSXuImHkChI-9" value="" style="shape=flexArrow;endArrow=classic;html=1;rounded=0;fontSize=50;fillColor=#dae8fc;strokeColor=#6c8ebf;" edge="1" parent="1" source="bAJiLaF6DqSXuImHkChI-10" target="bAJiLaF6DqSXuImHkChI-2">
          <mxGeometry width="50" height="50" relative="1" as="geometry">
            <mxPoint x="120" y="270" as="sourcePoint" />
            <mxPoint x="119.5" y="220" as="targetPoint" />
          </mxGeometry>
        </mxCell>
        <mxCell id="bAJiLaF6DqSXuImHkChI-10" value="&lt;font style=&quot;font-size: 14px; line-height: 0.5;&quot;&gt;Erstes Ereignis&lt;/font&gt;" style="rounded=1;whiteSpace=wrap;html=1;fontSize=50;fillColor=#fff2cc;strokeColor=#d6b656;textDirection=ltr;verticalAlign=bottom;horizontal=1;" vertex="1" parent="1">
          <mxGeometry x="60" y="260" width="120" height="40" as="geometry" />
        </mxCell>
        <mxCell id="bAJiLaF6DqSXuImHkChI-11" value="&lt;font style=&quot;font-size: 14px; line-height: 0.5;&quot;&gt;Letztes Ereignis&lt;/font&gt;" style="rounded=1;whiteSpace=wrap;html=1;fontSize=50;fillColor=#fff2cc;strokeColor=#d6b656;textDirection=ltr;verticalAlign=bottom;horizontal=1;" vertex="1" parent="1">
          <mxGeometry x="540" y="260" width="120" height="40" as="geometry" />
        </mxCell>
        <mxCell id="bAJiLaF6DqSXuImHkChI-12" value="" style="shape=flexArrow;endArrow=classic;html=1;rounded=0;fontSize=50;fillColor=#dae8fc;strokeColor=#6c8ebf;" edge="1" parent="1">
          <mxGeometry width="50" height="50" relative="1" as="geometry">
            <mxPoint x="599.5799999999999" y="260" as="sourcePoint" />
            <mxPoint x="599.5799999999999" y="210" as="targetPoint" />
          </mxGeometry>
        </mxCell>
      </root>
    </mxGraphModel>
  </diagram>
</mxfile>
